<?xml version="1.0" standalone="no"?>
<!DOCTYPE svg PUBLIC "-//W3C//DTD SVG 20010904//EN"
 "http://www.w3.org/TR/2001/REC-SVG-20010904/DTD/svg10.dtd">
<svg version="1.0" xmlns="http://www.w3.org/2000/svg"
 width="200.000000pt" height="200.000000pt" viewBox="0 0 200.000000 200.000000"
 preserveAspectRatio="xMidYMid meet">
<metadata>
Created by potrace 1.14, written by Peter Selinger 2001-2017
</metadata>
<g transform="translate(0.000000,200.000000) scale(0.100000,-0.100000)"
fill="#000000" stroke="none">
<path d="M696 1985 c-7 -18 -87 -127 -101 -137 -5 -4 -14 -9 -18 -11 -5 -1
-29 -72 -53 -157 -24 -85 -51 -177 -59 -205 -49 -166 -107 -374 -111 -397 -6
-33 6 -41 50 -33 26 5 36 13 41 32 6 24 37 100 56 135 5 10 9 22 9 28 0 6 14
40 30 75 17 35 30 67 30 71 0 7 26 68 46 107 8 16 14 36 14 44 0 9 3 13 7 9
15 -15 23 -527 8 -532 -11 -3 -69 -12 -125 -19 -19 -2 -69 -9 -110 -15 -41 -7
-91 -14 -110 -16 -64 -8 -75 -13 -86 -38 -12 -26 -12 -25 41 -102 16 -24 69
-95 103 -139 4 -5 37 -50 72 -100 36 -49 67 -92 70 -95 3 -3 35 -45 70 -95 36
-49 68 -94 72 -100 5 -5 36 -48 70 -95 35 -47 66 -89 70 -95 5 -5 24 -31 44
-57 37 -51 44 -54 91 -38 25 9 30 16 27 38 -2 15 -6 63 -10 107 -3 44 -7 103
-9 130 -2 28 -6 91 -9 140 -3 50 -8 110 -11 135 -3 25 -7 84 -10 133 l-6 87
45 0 c24 0 51 3 59 6 15 5 26 -43 33 -136 1 -19 3 -35 4 -35 1 0 3 -18 5 -40
4 -55 15 -147 20 -165 2 -8 6 -44 10 -80 3 -36 8 -77 10 -90 3 -14 7 -43 9
-65 9 -87 18 -160 23 -167 2 -5 28 -8 58 -8 52 0 54 1 101 56 27 31 60 69 74
84 36 39 97 109 155 175 28 31 59 67 70 79 11 12 42 48 69 80 28 31 61 69 75
85 65 69 71 80 62 104 -15 39 -36 39 -88 -1 -26 -20 -50 -38 -53 -41 -3 -4
-23 -19 -45 -36 -22 -16 -45 -34 -51 -40 -6 -5 -46 -37 -89 -70 -96 -75 -186
-146 -204 -163 -7 -7 -16 -11 -18 -8 -5 5 -5 105 -1 418 l1 86 81 7 c45 4 89
9 100 11 17 3 96 11 191 18 55 5 177 18 195 22 8 1 18 3 23 3 4 1 7 14 7 30 0
25 -27 69 -70 113 -8 8 -37 41 -65 73 -27 32 -63 72 -80 91 -16 18 -52 58 -80
90 -27 32 -54 62 -60 68 -5 6 -39 45 -75 86 -36 41 -76 87 -90 101 -14 15 -34
38 -45 51 -19 24 -134 154 -165 188 -8 8 -35 39 -58 68 -44 52 -81 68 -83 35
-1 -21 -1 -37 5 -218 4 -119 9 -252 19 -565 l2 -55 -53 -2 -52 -2 -1 35 c-1
19 -2 37 -3 42 -10 40 -16 76 -21 122 -3 30 -8 62 -10 70 -5 16 -12 94 -20
210 -3 41 -8 104 -11 140 -2 36 -7 97 -10 135 -2 39 -6 90 -8 115 -2 25 -4 60
-5 78 -1 30 -3 32 -40 32 -25 0 -41 -5 -45 -15z m724 -959 c0 -5 -209 -1 -214
5 -5 5 -36 206 -36 235 0 6 56 -44 125 -113 69 -68 125 -125 125 -127z m-719
-310 c6 -22 13 -48 14 -56 8 -33 56 -236 61 -255 5 -16 -109 132 -186 241 -8
12 -29 42 -47 66 l-31 44 89 1 89 0 11 -41z"/>
</g>
</svg>
